<?xml version="1.0" encoding="UTF-8" standalone="no"?><!DOCTYPE svg PUBLIC "-//W3C//DTD SVG 1.1//EN" "http://www.w3.org/Graphics/SVG/1.1/DTD/svg11.dtd"><svg width="100%" height="100%" viewBox="0 0 127 53" version="1.1" xmlns="http://www.w3.org/2000/svg" xmlns:xlink="http://www.w3.org/1999/xlink" xml:space="preserve" xmlns:serif="http://www.serif.com/" style="fill-rule:evenodd;clip-rule:evenodd;stroke-linejoin:round;stroke-miterlimit:1.41421;"><g id="Logo-Aztec" serif:id="Logo Aztec"><path d="M72.133,39.019l-2.474,-5.771c-0.404,0.966 -0.806,1.929 -1.208,2.89c-0.401,0.961 -0.8,1.922 -1.199,2.881l4.881,0Zm-1.791,-8.121c0.316,0.746 0.706,1.658 1.171,2.738c0.464,1.08 0.944,2.194 1.439,3.338c0.498,1.143 0.977,2.254 1.442,3.334c0.464,1.08 0.857,1.99 1.18,2.731c0.094,0.232 0.28,0.445 0.558,0.634c0.146,0.094 0.289,0.174 0.432,0.237c0.142,0.062 0.258,0.123 0.346,0.179c0.063,0.045 0.104,0.09 0.123,0.133c0.012,0.026 0.019,0.051 0.019,0.076c0,0.02 -0.007,0.041 -0.019,0.067c-0.019,0.037 -0.057,0.056 -0.115,0.056l-3.202,0c-0.058,0 -0.114,-0.019 -0.171,-0.056c-0.063,-0.045 -0.1,-0.092 -0.113,-0.143c-0.013,-0.019 -0.019,-0.037 -0.019,-0.057c0,-0.056 0.037,-0.117 0.114,-0.179c0.056,-0.057 0.126,-0.117 0.209,-0.182c0.081,-0.062 0.141,-0.148 0.179,-0.256c0.019,-0.049 0.028,-0.105 0.028,-0.17c0,-0.107 -0.025,-0.222 -0.076,-0.349l-1.402,-3.242l-5.525,0c-0.228,0.544 -0.453,1.084 -0.678,1.625c-0.224,0.541 -0.45,1.08 -0.678,1.617c-0.056,0.127 -0.088,0.24 -0.094,0.34c-0.007,0.045 -0.009,0.089 -0.009,0.132c0,0.065 0.009,0.123 0.028,0.182c0.019,0.082 0.05,0.148 0.095,0.203c0.044,0.053 0.076,0.108 0.095,0.166c0.005,0.051 0.009,0.086 0.009,0.104c0,0.019 -0.007,0.041 -0.019,0.066c-0.044,0.133 -0.114,0.199 -0.208,0.199l-2.446,0c-0.063,0 -0.107,-0.019 -0.132,-0.056c0,0 -0.007,-0.022 -0.019,-0.047c0,-0.014 0.006,-0.045 0.019,-0.096c0.038,-0.082 0.145,-0.164 0.322,-0.246c0.095,-0.045 0.197,-0.094 0.308,-0.146c0.11,-0.055 0.223,-0.12 0.336,-0.196c0.234,-0.164 0.405,-0.363 0.512,-0.595l5.374,-12.141l0.587,0Z" style="fill:#123744;fill-rule:nonzero;"/><path d="M77.952,43.843l9.211,-11.855l-5.762,0.009c-0.379,0 -0.685,0.121 -0.919,0.36c-0.233,0.24 -0.509,0.578 -0.825,1.013c-0.177,0.254 -0.296,0.379 -0.359,0.379c-0.133,0 -0.2,-0.066 -0.2,-0.197l0,-1.754c0,-0.342 0.061,-0.549 0.181,-0.621c0.119,-0.074 0.42,-0.109 0.9,-0.109l8.756,0c0.519,0 0.834,0.054 0.949,0.16c0.044,0.045 0.065,0.103 0.065,0.172c0,0.107 -0.047,0.24 -0.142,0.398l-9.306,11.695l7.402,-0.009c0.379,0 0.686,-0.12 0.919,-0.356c0.233,-0.238 0.512,-0.576 0.834,-1.019c0.177,-0.246 0.293,-0.37 0.35,-0.37c0.133,0 0.199,0.067 0.199,0.2l0,1.752c0,0.367 -0.048,0.58 -0.147,0.64c-0.097,0.061 -0.405,0.09 -0.923,0.09l-10.15,0c-0.531,0 -0.888,-0.029 -1.071,-0.086c-0.089,-0.023 -0.133,-0.074 -0.133,-0.15c0,-0.082 0.057,-0.197 0.171,-0.342" style="fill:#123744;fill-rule:nonzero;"/><path d="M101.957,33.552c0,0.131 -0.065,0.197 -0.199,0.197c-0.057,0 -0.177,-0.125 -0.36,-0.379c-0.322,-0.435 -0.599,-0.773 -0.83,-1.013c-0.23,-0.241 -0.535,-0.36 -0.914,-0.36l-2.378,0l0,11.041c0,0.41 0.158,0.672 0.473,0.787c0.316,0.114 0.475,0.248 0.475,0.407c0,0.125 -0.064,0.189 -0.19,0.189l-3.214,0c-0.132,0 -0.198,-0.064 -0.198,-0.189c0,-0.159 0.157,-0.293 0.474,-0.407c0.316,-0.115 0.473,-0.377 0.473,-0.787l0,-11.041l-2.416,0c-0.379,0 -0.687,0.119 -0.924,0.36c-0.237,0.24 -0.513,0.578 -0.83,1.013c-0.176,0.254 -0.294,0.379 -0.35,0.379c-0.132,0 -0.199,-0.066 -0.199,-0.197l0,-1.754c0,-0.342 0.058,-0.549 0.175,-0.621c0.118,-0.074 0.418,-0.109 0.906,-0.109l8.946,0c0.524,0 0.835,0.031 0.934,0.093c0.097,0.065 0.146,0.276 0.146,0.637l0,1.754Z" style="fill:#123744;fill-rule:nonzero;"/><path d="M106.469,43.53l4.047,0c0.587,0 1.084,-0.225 1.491,-0.678c0.408,-0.451 0.717,-0.804 0.925,-1.056c0.114,-0.139 0.203,-0.209 0.265,-0.209c0.133,0 0.199,0.066 0.199,0.199c0,0.082 -0.005,0.148 -0.019,0.199l-0.691,2.436l-8.71,0c-0.113,0 -0.17,-0.067 -0.17,-0.2c0,-0.158 0.157,-0.293 0.474,-0.402c0.315,-0.109 0.473,-0.371 0.473,-0.781l0,-10.529c0,-0.411 -0.158,-0.672 -0.473,-0.784c-0.317,-0.109 -0.474,-0.248 -0.474,-0.412c0,-0.131 0.066,-0.197 0.198,-0.197l8.796,0l0,2.435c0,0.131 -0.067,0.198 -0.199,0.198c-0.065,0 -0.181,-0.125 -0.351,-0.379c-0.317,-0.436 -0.59,-0.774 -0.821,-1.014c-0.23,-0.238 -0.535,-0.359 -0.913,-0.359l-4.047,0l0,5.144l2.17,0c0.403,0 0.67,-0.162 0.796,-0.488c0.126,-0.324 0.271,-0.486 0.436,-0.486c0.126,0 0.189,0.066 0.189,0.199l0,2.406c0,0.133 -0.063,0.199 -0.189,0.199c-0.165,0 -0.319,-0.162 -0.464,-0.484c-0.145,-0.32 -0.42,-0.482 -0.825,-0.482l-2.113,0l0,5.525Z" style="fill:#123744;fill-rule:nonzero;"/><path d="M122.229,44.773c-1.939,0 -3.657,-0.619 -5.155,-1.857c-1.498,-1.239 -2.246,-2.952 -2.246,-5.139c0,-2.129 0.728,-3.836 2.184,-5.121c1.456,-1.285 3.196,-1.928 5.217,-1.928c0.726,0 1.5,0.08 2.317,0.24c0.819,0.16 1.597,0.479 2.336,0.953l-0.227,1.991c-0.025,0.113 -0.088,0.17 -0.189,0.17l-0.029,0c-0.075,-0.006 -0.158,-0.094 -0.246,-0.266c-0.367,-0.789 -0.917,-1.371 -1.65,-1.744c-0.681,-0.334 -1.409,-0.502 -2.178,-0.502l-0.199,0c-1.706,0.076 -3.04,0.76 -4,2.049c-0.867,1.156 -1.298,2.435 -1.298,3.838c0,0.158 0.006,0.314 0.018,0.472c0.089,1.453 0.601,2.778 1.536,3.971c0.935,1.195 2.204,1.83 3.809,1.906c0.151,0.006 0.297,0.01 0.437,0.01c0.808,0 1.474,-0.125 1.999,-0.371c0.606,-0.289 1.115,-0.875 1.526,-1.754c0.081,-0.176 0.184,-0.264 0.303,-0.264c0.025,0 0.051,0.002 0.075,0.008c0.102,0.039 0.153,0.111 0.153,0.219c0,0.051 -0.013,0.107 -0.038,0.17l-0.825,2.304c-0.607,0.252 -1.223,0.422 -1.849,0.512c-0.625,0.088 -1.219,0.133 -1.781,0.133" style="fill:#123744;fill-rule:nonzero;"/><path d="M17.902,37.72c0.005,0.006 0.011,0.012 0.016,0.018c4.102,5.472 9.48,10.261 17.787,13.492c0.034,0.013 0.068,0.013 0.102,0.004c3.491,-1.071 7.378,-2.285 10.914,-3.373c0.073,-0.022 0.118,-0.088 0.112,-0.162c-0.006,-0.077 -0.062,-0.135 -0.136,-0.145c-4.04,-0.551 -9.117,-1.691 -11.961,-2.928c-0.072,-0.031 -0.109,-0.111 -0.088,-0.187c0.023,-0.076 0.096,-0.125 0.175,-0.114c6.562,1.241 16.793,-0.406 20.054,-2.943c0.016,-0.014 0.029,-0.029 0.039,-0.047c2.718,-3.959 5.297,-7.095 8.065,-11.431c0.035,-0.063 0.025,-0.139 -0.025,-0.188c-0.051,-0.051 -0.126,-0.062 -0.188,-0.027c-4.708,2.594 -14.599,6.197 -18.625,5.91c-0.079,0.006 -0.149,-0.047 -0.166,-0.123c-0.017,-0.078 0.025,-0.156 0.1,-0.182c9.649,-2.371 16.767,-7.094 20.904,-11.892c0.024,-0.028 0.036,-0.061 0.037,-0.096c0.295,-5.957 0.59,-17.184 0.883,-23.139c0.004,-0.072 -0.04,-0.136 -0.108,-0.16c-0.07,-0.021 -0.143,0.006 -0.181,0.067c-7.239,15.449 -21.047,25.865 -34.49,28.177c-3.574,0.615 -6.483,0.545 -8.77,0.565c-1.203,0.011 -6.988,-0.032 -7.449,-1.924c-0.006,-0.024 -0.007,-0.043 -0.003,-0.057c-0.449,-0.183 -0.908,-0.379 -1.309,-0.568c-0.974,-0.461 -1.295,-0.842 -1.972,-1.625c0.955,4.506 3.273,8.912 6.283,13.078" style="fill:#123744;fill-rule:nonzero;"/><path d="M12.62,14.462l0,5.705l3.315,3.891l2.824,0l1.513,-0.996l0,-1.176l-0.832,-0.834l0,-3.904l1.319,0l-1.421,-4.233l0,-2.633c-1.561,-0.084 -3.102,0.213 -4.346,0.758c-0.298,0.129 -0.577,0.295 -0.841,0.492c0.211,0.301 0.336,0.67 0.336,1.065c0,0.513 -0.209,0.98 -0.547,1.318c-0.338,0.338 -0.805,0.547 -1.32,0.547" style="fill:#cb4a22;fill-rule:nonzero;"/><path d="M17.902,37.722c-3.01,-4.168 -5.328,-8.572 -6.283,-13.08c0.677,0.783 0.997,1.164 1.972,1.625c0.419,0.197 0.903,0.406 1.372,0.594c0.25,-0.02 1.174,0.531 1.941,0.58c1.043,0.068 2.175,-0.149 3.027,-0.475c0.799,-0.307 1.602,-0.723 2.408,-1.187c0.068,-0.039 0.095,-0.121 0.066,-0.196c-0.029,-0.072 -0.107,-0.113 -0.184,-0.091c-3.764,0.939 -8.381,-0.211 -10.181,-3.526c-1.064,-1.947 -0.997,-5.107 0.031,-7.586c-0.293,-0.09 -0.557,-0.252 -0.769,-0.467c-0.338,-0.336 -0.547,-0.802 -0.547,-1.316c0,-0.514 0.209,-0.98 0.547,-1.318l0.001,0c0.338,-0.338 0.804,-0.547 1.317,-0.547c0.514,0 0.98,0.209 1.318,0.547c0.078,0.076 0.15,0.162 0.212,0.252c0.264,-0.196 0.544,-0.362 0.842,-0.491c3.247,-1.42 8.515,-1.164 10.873,3.194c0.035,0.062 0.103,0.095 0.174,0.078c0.069,-0.016 0.118,-0.074 0.122,-0.145c0.198,-3.91 0.351,-6.81 -2.269,-8.127c-0.208,-0.105 -1.144,-0.39 -2.075,-0.488c-0.791,-0.08 -1.596,0.02 -1.747,0.024c-0.385,0.007 -2.291,0.363 -4.341,1.921c-0.067,0.051 1.724,-1.748 3.113,-2.046c0.328,-0.071 0.219,-0.37 -1.063,-0.793c-3.541,-1.174 -8.876,-0.2 -10.905,1.084c-1.165,-0.204 -1.893,-1.055 -2.115,-1.874c-0.287,1.014 0.333,2.204 1.351,2.842c-0.062,0.125 -0.068,0.254 -0.088,0.393c-1.579,1.365 -3.507,2.361 -5.341,2.496c0.514,0.488 2.24,0.394 4.231,-0.045c-1.218,1.564 -2.985,2.82 -4.429,3.668c1.071,0.021 2.622,-0.176 3.899,-0.998c1.211,-0.779 1.209,-0.158 0.688,0.574c-1.04,1.459 -3.074,3.098 -4.919,3.168c-0.063,0.002 -0.116,0.041 -0.14,0.1c-0.023,0.06 -0.009,0.125 0.036,0.17c0.498,0.498 0.656,1.166 1.154,1.662c0.038,0.039 0.089,0.054 0.141,0.043c1.289,-0.252 2.057,-1.617 3.369,-1.473c0.155,0.018 0.666,0.244 0.648,0.463c-0.049,0.588 -0.476,0.432 -1.048,0.662c-1.616,0.65 -2.702,2.096 -3.894,3.057c-0.044,0.035 -0.064,0.086 -0.057,0.142c0.1,0.78 0.198,1.559 0.298,2.336c0.007,0.057 0.041,0.102 0.094,0.125c0.051,0.022 0.107,0.016 0.153,-0.015c1.205,-0.86 2.148,-2.354 3.538,-2.889c0.072,-0.027 0.154,0 0.193,0.068c0.205,0.352 -0.041,0.438 -0.268,0.647c-1.363,1.265 -2.503,3.234 -3.476,4.51c-0.035,0.044 -0.043,0.103 -0.019,0.158c0.376,0.892 0.752,1.787 1.129,2.681c0.027,0.065 0.089,0.102 0.159,0.096c0.068,-0.008 0.125,-0.055 0.139,-0.123c0.381,-1.684 1.556,-3.371 3.488,-5.057c0.06,-0.052 0.148,-0.052 0.208,0c0.059,0.055 0.071,0.141 0.026,0.207c-1.916,2.85 -2.623,5.549 -3.192,8.231c-0.013,0.053 0.003,0.105 0.042,0.144c0.922,0.92 1.844,1.842 2.765,2.766c0.044,0.043 0.105,0.057 0.163,0.037c0.058,-0.019 0.098,-0.068 0.105,-0.131c0.281,-2.236 0.699,-4.451 1.589,-6.599c0.031,-0.076 0.112,-0.116 0.189,-0.09c0.077,0.021 0.126,0.098 0.111,0.178c-0.531,2.882 -0.417,6.679 0.348,11.398c0.006,0.041 0.028,0.076 0.062,0.102c1.785,1.312 3.571,2.625 5.357,3.939c0.057,0.041 0.131,0.041 0.187,-0.002c0.057,-0.041 0.078,-0.113 0.053,-0.18c-2.199,-6.05 -3.192,-10.462 -2.284,-12.289c0.031,-0.062 0.096,-0.093 0.165,-0.084c0.069,0.01 0.12,0.061 0.132,0.131c1.198,7.623 5.917,14.465 10.895,20.344c0.025,0.031 0.056,0.049 0.094,0.055c2.435,0.396 4.776,0.32 7.21,0.718c0.076,0.012 0.146,-0.029 0.172,-0.099c0.028,-0.07 0.002,-0.149 -0.061,-0.19c-5.93,-3.775 -9.88,-9.113 -12.473,-14.009c-0.037,-0.073 -0.014,-0.161 0.056,-0.205c0.062,-0.041 0.143,-0.03 0.195,0.021" style="fill:#cb4a22;fill-rule:nonzero;"/><path d="M12.62,13.741c0.632,0 1.145,-0.514 1.145,-1.145c0,-0.63 -0.513,-1.144 -1.145,-1.144c-0.629,0 -1.144,0.514 -1.144,1.144c0,0.631 0.515,1.145 1.144,1.145" style="fill:#cb4a22;fill-rule:nonzero;"/></g></svg>